<svg xmlns="http://www.w3.org/2000/svg" viewBox="0 0 800 1000" width="800" height="1000" role="img" aria-label="Illustration placeholder: Facial Mist texture">
  <title>Illustration placeholder: Facial Mist texture</title>
  <defs>
    <linearGradient id="gilt" x1="0" y1="0" x2="1" y2="0"><stop offset="0" stop-color="#8C6A2F"/><stop offset="0.45" stop-color="#E2CB97"/><stop offset="1" stop-color="#8C6A2F"/></linearGradient>
  </defs>
  <rect width="800" height="1000" fill="#EEE8DD"/>
  <circle cx="220" cy="420" r="6" fill="#2F5A43" opacity="0.25"/><circle cx="218" cy="418" r="2" fill="#FFFFFF" opacity="0.7"/><circle cx="317" cy="473" r="9" fill="#2F5A43" opacity="0.25"/><circle cx="314" cy="470" r="3" fill="#FFFFFF" opacity="0.7"/><circle cx="414" cy="526" r="12" fill="#2F5A43" opacity="0.25"/><circle cx="410" cy="522" r="4" fill="#FFFFFF" opacity="0.7"/><circle cx="511" cy="579" r="15" fill="#2F5A43" opacity="0.25"/><circle cx="506" cy="574" r="5" fill="#FFFFFF" opacity="0.7"/><circle cx="248" cy="632" r="6" fill="#2F5A43" opacity="0.25"/><circle cx="246" cy="630" r="2" fill="#FFFFFF" opacity="0.7"/><circle cx="345" cy="425" r="9" fill="#2F5A43" opacity="0.25"/><circle cx="342" cy="422" r="3" fill="#FFFFFF" opacity="0.7"/><circle cx="442" cy="478" r="12" fill="#2F5A43" opacity="0.25"/><circle cx="438" cy="474" r="4" fill="#FFFFFF" opacity="0.7"/><circle cx="539" cy="531" r="15" fill="#2F5A43" opacity="0.25"/><circle cx="534" cy="526" r="5" fill="#FFFFFF" opacity="0.7"/><circle cx="276" cy="584" r="6" fill="#2F5A43" opacity="0.25"/><circle cx="274" cy="582" r="2" fill="#FFFFFF" opacity="0.7"/><circle cx="373" cy="637" r="9" fill="#2F5A43" opacity="0.25"/><circle cx="370" cy="634" r="3" fill="#FFFFFF" opacity="0.7"/><circle cx="470" cy="430" r="12" fill="#2F5A43" opacity="0.25"/><circle cx="466" cy="426" r="4" fill="#FFFFFF" opacity="0.7"/><circle cx="567" cy="483" r="15" fill="#2F5A43" opacity="0.25"/><circle cx="562" cy="478" r="5" fill="#FFFFFF" opacity="0.7"/><circle cx="304" cy="536" r="6" fill="#2F5A43" opacity="0.25"/><circle cx="302" cy="534" r="2" fill="#FFFFFF" opacity="0.7"/><circle cx="401" cy="589" r="9" fill="#2F5A43" opacity="0.25"/><circle cx="398" cy="586" r="3" fill="#FFFFFF" opacity="0.7"/><circle cx="498" cy="642" r="12" fill="#2F5A43" opacity="0.25"/><circle cx="494" cy="638" r="4" fill="#FFFFFF" opacity="0.7"/><circle cx="235" cy="435" r="15" fill="#2F5A43" opacity="0.25"/><circle cx="230" cy="430" r="5" fill="#FFFFFF" opacity="0.7"/><circle cx="332" cy="488" r="6" fill="#2F5A43" opacity="0.25"/><circle cx="330" cy="486" r="2" fill="#FFFFFF" opacity="0.7"/><circle cx="429" cy="541" r="9" fill="#2F5A43" opacity="0.25"/><circle cx="426" cy="538" r="3" fill="#FFFFFF" opacity="0.7"/><circle cx="526" cy="594" r="12" fill="#2F5A43" opacity="0.25"/><circle cx="522" cy="590" r="4" fill="#FFFFFF" opacity="0.7"/><circle cx="263" cy="647" r="15" fill="#2F5A43" opacity="0.25"/><circle cx="258" cy="642" r="5" fill="#FFFFFF" opacity="0.7"/><circle cx="360" cy="440" r="6" fill="#2F5A43" opacity="0.25"/><circle cx="358" cy="438" r="2" fill="#FFFFFF" opacity="0.7"/><circle cx="457" cy="493" r="9" fill="#2F5A43" opacity="0.25"/><circle cx="454" cy="490" r="3" fill="#FFFFFF" opacity="0.7"/><circle cx="554" cy="546" r="12" fill="#2F5A43" opacity="0.25"/><circle cx="550" cy="542" r="4" fill="#FFFFFF" opacity="0.7"/><circle cx="291" cy="599" r="15" fill="#2F5A43" opacity="0.25"/><circle cx="286" cy="594" r="5" fill="#FFFFFF" opacity="0.7"/><circle cx="388" cy="652" r="6" fill="#2F5A43" opacity="0.25"/><circle cx="386" cy="650" r="2" fill="#FFFFFF" opacity="0.7"/><circle cx="485" cy="445" r="9" fill="#2F5A43" opacity="0.25"/><circle cx="482" cy="442" r="3" fill="#FFFFFF" opacity="0.7"/>
  <text x="40" y="958" font-family="Helvetica, Arial, sans-serif" font-size="22" fill="#5C4330">Placeholder illustration</text>
</svg>
