<svg xmlns="http://www.w3.org/2000/svg" viewBox="0 0 800 1000" width="800" height="1000" role="img" aria-label="Illustration placeholder: Cloud Cream">
  <title>Illustration placeholder: Cloud Cream</title>
  <defs>
    <linearGradient id="gilt" x1="0" y1="0" x2="1" y2="0"><stop offset="0" stop-color="#8C6A2F"/><stop offset="0.45" stop-color="#E2CB97"/><stop offset="1" stop-color="#8C6A2F"/></linearGradient>
    <linearGradient id="glassShade" x1="0" y1="0" x2="1" y2="0"><stop offset="0" stop-color="#000" stop-opacity="0.22"/><stop offset="0.35" stop-color="#000" stop-opacity="0"/><stop offset="1" stop-color="#000" stop-opacity="0.3"/></linearGradient>
    <radialGradient id="floorShadow" cx="0.5" cy="0.5" r="0.5"><stop offset="0" stop-color="#2A1D15" stop-opacity="0.22"/><stop offset="1" stop-color="#2A1D15" stop-opacity="0"/></radialGradient>
  </defs>
  <rect width="800" height="1000" fill="#EEE8DD"/>
  <rect y="668" width="800" height="332" fill="#E6DED0"/>
  <ellipse cx="400" cy="672" rx="230" ry="26" fill="url(#floorShadow)"/>
  
    <rect x="245" y="470" width="310" height="66" rx="8" fill="url(#gilt)"/>
    
  <rect x="238" y="532" width="324" height="136" rx="26" fill="#7A4A22" opacity="0.92"/>
  <rect x="238" y="532" width="324" height="136" rx="26" fill="url(#glassShade)"/>
  <rect x="238" y="532" width="324" height="136" rx="26" fill="none" stroke="#C9A86A" stroke-opacity="0.55" stroke-width="2"/>
  <rect x="270.4" y="550" width="29.16" height="100" rx="6" fill="#F7F2E8" opacity="0.22"/>
    
  <rect x="320" y="548" width="160" height="106" rx="3" fill="#F7F2E8"/>
  <rect x="325" y="553" width="150" height="96" rx="2" fill="none" stroke="#C9A86A" stroke-width="1.5"/>
  <text x="400" y="586.4" text-anchor="middle" font-family="Didot, 'Bodoni 72', Georgia, serif" font-size="19" letter-spacing="4" fill="#2A1D15">CRATER</text>
  <path d="M364.8 599.2 H435.2" stroke="#8C6A2F" stroke-width="1.5"/>
  <text x="400" y="623.2" text-anchor="middle" font-family="Helvetica, Arial, sans-serif" font-size="12" letter-spacing="1" fill="#2A1D15">Cloud Cream</text>
  <text x="40" y="958" font-family="Helvetica, Arial, sans-serif" font-size="22" fill="#5C4330">Placeholder illustration</text>
</svg>
